<?xml version="1.0" encoding="UTF-8"?>
<svg xmlns="http://www.w3.org/2000/svg" version="1.1" xmlns:xlink="http://www.w3.org/1999/xlink" viewBox="0 0 54 32.07">
  <defs>
    <style>
      .cls-1 {
        fill: #f9d748;
      }

      .cls-1, .cls-2, .cls-3, .cls-4 {
        fill-rule: evenodd;
      }

      .cls-5, .cls-6 {
        fill: none;
      }

      .cls-7 {
        clip-path: url(#clippath-1);
      }

      .cls-8 {
        fill: #080a00;
        opacity: .12;
      }

      .cls-2 {
        fill: #8c8c9b;
      }

      .cls-3, .cls-9 {
        fill: #bcd676;
      }

      .cls-4 {
        fill: #ea7a2f;
      }

      .cls-6, .cls-9 {
        clip-rule: evenodd;
      }

      .cls-10 {
        fill: #fff;
        opacity: .35;
      }

      .cls-11 {
        clip-path: url(#clippath-2);
      }

      .cls-12 {
        clip-path: url(#clippath);
      }
    </style>
    <clipPath id="clippath">
      <path id="mask-2" data-name="mask" class="cls-9" d="M12.38,0h29.25c7.88,0,12.38,15.2,12.38,25.32,0,4.5-2.25,6.75-4.5,6.75-9,0-10.12-7.88-21.38-7.88s-14.62,7.88-23.62,7.88c-2.01,0-4.5-2.25-4.5-6.75C0,15.2,4.5,0,12.38,0Z"/>
    </clipPath>
    <clipPath id="clippath-1">
      <path class="cls-6" d="M44,15.07c1.66,0,3,1.34,3,3s-1.34,3-3,3-3-1.34-3-3,1.34-3,3-3Z"/>
    </clipPath>
    <clipPath id="clippath-2">
      <circle class="cls-5" cx="36" cy="11.07" r="3"/>
    </clipPath>
  </defs>
  
  <g>
    <g id="Layer_1">
      <g>
        <path id="mask" class="cls-3" d="M12.38,0h29.25c7.88,0,12.38,15.2,12.38,25.32,0,4.5-2.25,6.75-4.5,6.75-9,0-10.12-7.88-21.38-7.88s-14.62,7.88-23.62,7.88c-2.01,0-4.5-2.25-4.5-6.75C0,15.2,4.5,0,12.38,0Z"/>
        <g class="cls-12">
          <rect class="cls-10" x="-13.85" y="9.64" width="59.98" height="10.49" transform="translate(-4.82 21.41) rotate(-60)"/>
        </g>
      </g>
      <polygon class="cls-2" points="21 12.14 16.93 12.14 16.93 8.07 12 8.07 12 12.14 8.07 12.14 8.07 17.07 12 17.07 12 21.14 16.93 21.14 16.93 17.07 21 17.07 21 12.14"/>
      <g class="cls-7">
        <path class="cls-4" d="M44,15.07c1.66,0,3,1.34,3,3s-1.34,3-3,3-3-1.34-3-3,1.34-3,3-3Z"/>
        <rect class="cls-8" x="40.25" y="17.28" width="11.8" height="6" transform="translate(5.51 50.11) rotate(-60)"/>
      </g>
      <g class="cls-11">
        <path class="cls-1" d="M36,8.07c1.66,0,3,1.34,3,3s-1.34,3-3,3-3-1.34-3-3,1.34-3,3-3Z"/>
        <rect class="cls-8" x="32.1" y="10.87" width="11.8" height="6" transform="translate(6.99 39.84) rotate(-60)"/>
      </g>
    </g>
  </g>
</svg>